ffmpeg started on 2016-11-30 at 16:10:25
Report written to "Output/x264/results/ffmpeg/old_town_cross_2160p50fast4000k.log"
Command line:
Tools/ffmpeg/ffmpeg -benchmark -y -i Input/y4m/old_town_cross_2160p50.y4m -c:v libx264 -preset fast -b:v 4000k -an Output/x264/encoded/old_town_cross_2160p50fast4000k.mkv
ffmpeg version N-82227-gdb23fde Copyright (c) 2000-2016 the FFmpeg developers
  built with gcc 5.4.0 (Ubuntu 5.4.0-6ubuntu1~16.04.2) 20160609
  configuration: --prefix=/home/jaroslav/ffmpeg_build --pkg-config-flags=--static --extra-cflags=-I/home/jaroslav/ffmpeg_build/include --extra-ldflags=-L/home/jaroslav/ffmpeg_build/lib --bindir=/home/jaroslav/bin --enable-gpl --enable-libass --enable-libfdk-aac --enable-libfreetype --enable-libmp3lame --enable-libopus --enable-libtheora --enable-libvorbis --enable-libvpx --enable-libx264 --enable-libx265 --enable-nvenc --enable-libmfx --enable-libxvid --enable-libgsm --enable-libopencore-amrnb --enable-version3 --enable-nonfree
  libavutil      55. 35.100 / 55. 35.100
  libavcodec     57. 66.101 / 57. 66.101
  libavformat    57. 57.100 / 57. 57.100
  libavdevice    57.  2.100 / 57.  2.100
  libavfilter     6. 66.100 /  6. 66.100
  libswscale      4.  3.100 /  4.  3.100
  libswresample   2.  4.100 /  2.  4.100
  libpostproc    54.  2.100 / 54.  2.100
Input #0, yuv4mpegpipe, from 'Input/y4m/old_town_cross_2160p50.y4m':
  Duration: 00:00:10.00, start: 0.000000, bitrate: 4976642 kb/s
    Stream #0:0: Video: rawvideo (I420 / 0x30323449), yuv420p(progressive), 3840x2160, SAR 1:1 DAR 16:9, 50 fps, 50 tbr, 50 tbn, 50 tbc
[libx264 @ 0x34a0120] using SAR=1/1
[libx264 @ 0x34a0120] using cpu capabilities: MMX2 SSE2Fast SSSE3 SSE4.2 AVX FMA3 AVX2 LZCNT BMI2
[libx264 @ 0x34a0120] profile High, level 5.2
[libx264 @ 0x34a0120] 264 - core 148 - H.264/MPEG-4 AVC codec - Copyleft 2003-2016 - http://www.videolan.org/x264.html - options: cabac=1 ref=2 deblock=1:0:0 analyse=0x3:0x113 me=hex subme=6 psy=1 psy_rd=1.00:0.00 mixed_ref=1 me_range=16 chroma_me=1 trellis=1 8x8dct=1 cqm=0 deadzone=21,11 fast_pskip=1 chroma_qp_offset=-2 threads=6 lookahead_threads=1 sliced_threads=0 nr=0 decimate=1 interlaced=0 bluray_compat=0 constrained_intra=0 bframes=3 b_pyramid=2 b_adapt=1 b_bias=0 direct=1 weightb=1 open_gop=0 weightp=1 keyint=250 keyint_min=25 scenecut=40 intra_refresh=0 rc_lookahead=30 rc=abr mbtree=1 bitrate=4000 ratetol=1.0 qcomp=0.60 qpmin=0 qpmax=69 qpstep=4 ip_ratio=1.40 aq=1:1.00
Output #0, matroska, to 'Output/x264/encoded/old_town_cross_2160p50fast4000k.mkv':
  Metadata:
    encoder         : Lavf57.57.100
    Stream #0:0: Video: h264 (libx264) (H264 / 0x34363248), yuv420p, 3840x2160 [SAR 1:1 DAR 16:9], q=-1--1, 4000 kb/s, 50 fps, 1k tbn, 50 tbc
    Metadata:
      encoder         : Lavc57.66.101 libx264
    Side data:
      cpb: bitrate max/min/avg: 0/0/4000000 buffer size: 0 vbv_delay: -1
Stream mapping:
  Stream #0:0 -> #0:0 (rawvideo (native) -> h264 (libx264))
Press [q] to stop, [?] for help
frame=   37 fps= 20 q=0.0 size=       0kB time=00:00:00.00 bitrate=N/A speed=   0x    frame=   46 fps= 19 q=46.0 size=       1kB time=00:00:00.06 bitrate=  96.3kbits/s speed=0.0249x    frame=   57 fps= 19 q=42.0 size=       1kB time=00:00:00.28 bitrate=  20.9kbits/s speed=0.095x    frame=   66 fps= 18 q=41.0 size=       1kB time=00:00:00.46 bitrate=  12.7kbits/s speed=0.126x    frame=   75 fps= 18 q=41.0 size=       1kB time=00:00:00.64 bitrate=   9.2kbits/s speed=0.154x    frame=   85 fps= 18 q=40.0 size=       1kB time=00:00:00.84 bitrate=   7.0kbits/s speed=0.181x    frame=   94 fps= 18 q=40.0 size=       1kB time=00:00:01.02 bitrate=   5.8kbits/s speed=0.191x    frame=  104 fps= 18 q=40.0 size=       1kB time=00:00:01.22 bitrate=   4.8kbits/s speed=0.208x    frame=  114 fps= 17 q=40.0 size=       1kB time=00:00:01.42 bitrate=   4.1kbits/s speed=0.216x    frame=  125 fps= 18 q=39.0 size=       1kB time=00:00:01.64 bitrate=   3.6kbits/s speed=0.232x    frame=  134 fps= 17 q=39.0 size=       1kB time=00:00:01.82 bitrate=   3.2kbits/s speed=0.234x    frame=  145 fps= 18 q=39.0 size=       1kB time=00:00:02.04 bitrate=   2.9kbits/s speed=0.246x    frame=  154 fps= 17 q=39.0 size=       1kB time=00:00:02.22 bitrate=   2.6kbits/s speed=0.247x    frame=  165 fps= 17 q=39.0 size=       1kB time=00:00:02.44 bitrate=   2.4kbits/s speed=0.257x    frame=  174 fps= 17 q=39.0 size=       1kB time=00:00:02.62 bitrate=   2.2kbits/s speed=0.257x    frame=  185 fps= 17 q=39.0 size=       1kB time=00:00:02.84 bitrate=   2.1kbits/s speed=0.265x    frame=  194 fps= 17 q=39.0 size=       1kB time=00:00:03.02 bitrate=   1.9kbits/s speed=0.265x    frame=  205 fps= 17 q=39.0 size=       1kB time=00:00:03.24 bitrate=   1.8kbits/s speed=0.272x    frame=  214 fps= 17 q=39.0 size=       1kB time=00:00:03.42 bitrate=   1.7kbits/s speed=0.271x    frame=  224 fps= 17 q=39.0 size=       1kB time=00:00:03.62 bitrate=   1.6kbits/s speed=0.276x    frame=  234 fps= 17 q=39.0 size=       1kB time=00:00:03.82 bitrate=   1.5kbits/s speed=0.276x    frame=  245 fps= 17 q=39.0 size=       1kB time=00:00:04.04 bitrate=   1.5kbits/s speed=0.282x    frame=  252 fps= 16 q=39.0 size=       1kB time=00:00:04.18 bitrate=   1.4kbits/s speed=0.267x    frame=  254 fps= 16 q=39.0 size=       1kB time=00:00:04.22 bitrate=   1.4kbits/s speed=0.259x    frame=  256 fps= 15 q=39.0 size=       1kB time=00:00:04.26 bitrate=   1.4kbits/s speed=0.252x    frame=  261 fps= 15 q=39.0 size=       1kB time=00:00:04.36 bitrate=   1.3kbits/s speed=0.25x    frame=  266 fps= 15 q=39.0 size=       1kB time=00:00:04.46 bitrate=   1.3kbits/s speed=0.247x    frame=  271 fps= 15 q=39.0 size=       1kB time=00:00:04.56 bitrate=   1.3kbits/s speed=0.245x    frame=  276 fps= 14 q=39.0 size=       1kB time=00:00:04.66 bitrate=   1.3kbits/s speed=0.242x    frame=  281 fps= 14 q=39.0 size=       1kB time=00:00:04.76 bitrate=   1.2kbits/s speed=0.24x    frame=  286 fps= 14 q=40.0 size=       1kB time=00:00:04.86 bitrate=   1.2kbits/s speed=0.239x    frame=  295 fps= 14 q=39.0 size=    2238kB time=00:00:05.04 bitrate=3636.6kbits/s speed=0.241x    frame=  305 fps= 14 q=39.0 size=    2238kB time=00:00:05.24 bitrate=3497.8kbits/s speed=0.244x    frame=  315 fps= 14 q=39.0 size=    2238kB time=00:00:05.44 bitrate=3369.3kbits/s speed=0.245x    frame=  324 fps= 14 q=39.0 size=    2238kB time=00:00:05.62 bitrate=3261.4kbits/s speed=0.248x    frame=  334 fps= 14 q=39.0 size=    2238kB time=00:00:05.82 bitrate=3149.3kbits/s speed=0.251x    frame=  343 fps= 14 q=39.0 size=    2238kB time=00:00:06.00 bitrate=3054.8kbits/s speed=0.251x    frame=  353 fps= 14 q=39.0 size=    2238kB time=00:00:06.20 bitrate=2956.3kbits/s speed=0.254x    frame=  363 fps= 14 q=39.0 size=    2238kB time=00:00:06.40 bitrate=2864.0kbits/s speed=0.255x    frame=  373 fps= 15 q=39.0 size=    2238kB time=00:00:06.60 bitrate=2777.2kbits/s speed=0.258x    frame=  383 fps= 15 q=39.0 size=    2238kB time=00:00:06.80 bitrate=2695.5kbits/s speed=0.259x    frame=  393 fps= 15 q=39.0 size=    2238kB time=00:00:07.00 bitrate=2618.5kbits/s speed=0.261x    frame=  403 fps= 15 q=39.0 size=    2238kB time=00:00:07.20 bitrate=2545.8kbits/s speed=0.262x    frame=  413 fps= 15 q=39.0 size=    2238kB time=00:00:07.40 bitrate=2477.0kbits/s speed=0.264x    frame=  423 fps= 15 q=39.0 size=    2238kB time=00:00:07.60 bitrate=2411.8kbits/s speed=0.264x    frame=  433 fps= 15 q=39.0 size=    2238kB time=00:00:07.80 bitrate=2350.0kbits/s speed=0.267x    frame=  443 fps= 15 q=39.0 size=    2238kB time=00:00:08.00 bitrate=2291.2kbits/s speed=0.267x    frame=  453 fps= 15 q=39.0 size=    2238kB time=00:00:08.20 bitrate=2235.4kbits/s speed=0.269x    frame=  463 fps= 15 q=39.0 size=    2238kB time=00:00:08.40 bitrate=2182.1kbits/s speed=0.27x    frame=  472 fps= 15 q=39.0 size=    2238kB time=00:00:08.58 bitrate=2136.4kbits/s speed=0.271x    frame=  482 fps= 15 q=39.0 size=    2238kB time=00:00:08.78 bitrate=2087.7kbits/s speed=0.273x    frame=  491 fps= 15 q=39.0 size=    2238kB time=00:00:08.96 bitrate=2045.8kbits/s speed=0.272x    frame=  493 fps= 15 q=39.0 size=    2238kB time=00:00:09.00 bitrate=2036.7kbits/s speed=0.267x    frame=  495 fps= 14 q=39.0 size=    2238kB time=00:00:09.04 bitrate=2027.7kbits/s speed=0.263x    frame=  497 fps= 14 q=40.0 size=    2238kB time=00:00:09.08 bitrate=2018.7kbits/s speed=0.26x    frame=  500 fps= 14 q=-1.0 Lsize=    4874kB time=00:00:09.94 bitrate=4016.7kbits/s speed=0.269x    
video:4870kB audio:0kB subtitle:0kB other streams:0kB global headers:0kB muxing overhead: 0.087911%
bench: utime=108.504s
bench: maxrss=1602364kB
[libx264 @ 0x34a0120] frame I:3     Avg QP:35.88  size:124636
[libx264 @ 0x34a0120] frame P:183   Avg QP:37.43  size: 12346
[libx264 @ 0x34a0120] frame B:314   Avg QP:39.46  size:  7493
[libx264 @ 0x34a0120] consecutive B-frames: 16.0%  0.8%  0.0% 83.2%
[libx264 @ 0x34a0120] mb I  I16..4: 20.5% 69.5%  9.9%
[libx264 @ 0x34a0120] mb P  I16..4:  0.2%  0.1%  0.0%  P16..4: 15.5%  0.7%  0.6%  0.0%  0.0%    skip:83.0%
[libx264 @ 0x34a0120] mb B  I16..4:  0.2%  0.1%  0.0%  B16..8: 10.5%  0.2%  0.0%  direct: 4.5%  skip:84.5%  L0:32.5% L1:67.4% BI: 0.1%
[libx264 @ 0x34a0120] final ratefactor: 31.42
[libx264 @ 0x34a0120] 8x8 transform intra:56.5% inter:94.8%
[libx264 @ 0x34a0120] coded y,uvDC,uvAC intra: 25.4% 30.9% 8.7% inter: 1.9% 1.8% 0.0%
[libx264 @ 0x34a0120] i16 v,h,dc,p: 48% 39%  7%  6%
[libx264 @ 0x34a0120] i8 v,h,dc,ddl,ddr,vr,hd,vl,hu: 23% 19% 37%  3%  3%  3%  6%  2%  5%
[libx264 @ 0x34a0120] i4 v,h,dc,ddl,ddr,vr,hd,vl,hu: 26% 34%  9%  5%  6%  5%  8%  3%  4%
[libx264 @ 0x34a0120] i8c dc,h,v,p: 80%  9% 11%  1%
[libx264 @ 0x34a0120] Weighted P-Frames: Y:0.5% UV:0.0%
[libx264 @ 0x34a0120] ref P L0: 82.4% 17.6%
[libx264 @ 0x34a0120] ref B L0: 91.6%  8.4%
[libx264 @ 0x34a0120] ref B L1: 96.6%  3.4%
[libx264 @ 0x34a0120] kb/s:3988.92
